HIERARCHY
ROOT hip
{
  OFFSET 0.0 0.0 0.0
  CHANNELS 6 Xposition Yposition Zposition Zrotation Yrotation Xrotation
  JOINT torso
  {
    OFFSET 0.0 0.0 0.0
    CHANNELS 3 Zrotation Xrotation Yrotation
    JOINT neck
    {
      OFFSET -20.11218299999996 327.95800799999995 66.30578600000035
      CHANNELS 3 Zrotation Xrotation Yrotation
      JOINT head
      {
        OFFSET 18.28939800000012 288.83178699999996 217.81652800000006
        CHANNELS 3 Zrotation Xrotation Yrotation
        End Site
        {
          OFFSET 0.0 0.0 0.0
        }
      }
    }
    JOINT left_collar
    {
      OFFSET -20.11218299999996 327.95800799999995 66.30578600000035
      CHANNELS 3 Zrotation Xrotation Yrotation
      JOINT left_upper_arm
      {
        OFFSET -127.08163400000001 -16.17407199999991 15.44799799999987
        CHANNELS 3 Zrotation Xrotation Yrotation
        JOINT left_forearm
        {
          OFFSET -234.267792 45.78796399999999 109.31286600000021
          CHANNELS 3 Zrotation Xrotation Yrotation
          JOINT left_hand
          {
            OFFSET -259.114014 -33.25433399999997 16.18847699999992
            CHANNELS 3 Zrotation Xrotation Yrotation
            End Site
            {
              OFFSET 0.0 0.0 0.0
            }
          }
        }
      }
    }
    JOINT right_collar
    {
      OFFSET -20.11218299999996 327.95800799999995 66.30578600000035
      CHANNELS 3 Zrotation Xrotation Yrotation
      JOINT right_upper_arm
      {
        OFFSET 164.513184 1.5733030000000099 4.892333999999892
        CHANNELS 3 Zrotation Xrotation Yrotation
        JOINT right_forearm
        {
          OFFSET 260.742027 48.718444999999974 144.35229500000014
          CHANNELS 3 Zrotation Xrotation Yrotation
          JOINT right_hand
          {
            OFFSET 287.85150899999996 -44.57171600000015 13.96813899999961
            CHANNELS 3 Zrotation Xrotation Yrotation
            End Site
            {
              OFFSET 0.0 0.0 0.0
            }
          }
        }
      }
    }
  }
}
MOTION
Frames: 14
Frame Time: 0.01
-248.88610045416272 263.2420702717293 1417.8038639560166 -2.4120327590829467 0.9664703865615264 -14.97684970851956 0.7966294499654547 1.144098423360543 -0.08314778735765048 0.9497934246414492 -18.534598128170888 0.27832959234632143 0.0 0.0 0.0 1.0950216255825118 0.9670303832183187 -6.035268357100968 70.65942159942077 20.861462300382517 22.858741340186086 31.561807519102228 14.513050287915107 -28.157592705491886 0.0 0.0 0.0 -0.26193697236057745 -0.0076420260929028865 2.1196404483154145 -46.30815740715333 16.65338133990863 -27.483176866909325 -62.19913001519936 13.3548420429127 11.494126951502329 0.0 0.0 0.0
-248.72399604693095 263.1780300763148 1418.0529702924075 -2.436999464823871 0.8835708814607467 -14.881416056518944 0.7869028855492463 1.1835489866878042 -0.07858170346358205 0.9542039817328981 -18.494476096470812 0.2727777742012759 0.0 0.0 0.0 1.0757387975735968 0.9863490141864119 -6.198589262313569 70.6878661695755 20.846453297436245 22.90504138012842 31.517327651721768 14.482298196510335 -28.12656881118676 0.0 0.0 0.0 -0.2838947041346541 -0.005412493446176739 1.9547296211583924 -46.27750890160251 16.65680630064035 -27.44072735808854 -62.12915680711245 13.438518387974959 11.614090415187846 0.0 0.0 0.0
-248.56474976544368 263.1106373645266 1418.3059249901228 -2.460212756686714 0.7997670867870281 -14.783733258217449 0.7742256856220233 1.2227150139699738 -0.0734744547555843 0.959442273693307 -18.45292218988433 0.2664810117951216 0.0 0.0 0.0 1.0566466732204216 1.005861604713794 -6.363390376993487 70.71792917753952 20.831893690970805 22.951263226065755 31.472576804935958 14.451294870553573 -28.09513684579678 0.0 0.0 0.0 -0.3056457158697449 -0.003245189674039062 1.7882751604783786 -46.246161743506754 16.659586641398786 -27.39986353707167 -62.0615787875045 13.522730851589996 11.734227173192847 0.0 0.0 0.0
-248.41752008729176 263.0366625177789 1418.5667683824772 -2.4821033260326115 0.7132525170544827 -14.680303971959495 0.7583023010445199 1.2619840492108074 -0.06774589438326278 0.9655984561319672 -18.409019950049853 0.25932148042182224 0.0 0.0 0.0 1.0374258265235745 1.025755619180661 -6.531433809363886 70.75063953336813 20.818365066982548 22.99677906630111 31.427579193901547 14.420148828032037 -28.06351089578199 0.0 0.0 0.0 -0.3274837655239753 -0.0011139148852044858 1.6182994623147904 -46.21352792049756 16.66154429961841 -27.36065858631995 -61.997724139045765 13.608200132105102 11.854979732809353 0.0 0.0 0.0
-248.2923207130149 262.9526897891187 1418.8397595639221 -2.5033388133380012 0.6222257522821272 -14.567751014168577 0.7388848650010519 1.30167416235098 -0.06133030895105892 0.9726920406769362 -18.36185777143353 0.25123931825824936 0.0 0.0 0.0 1.017794860048994 1.0461845913544872 -6.704206590579191 70.78711141702505 20.806502437219823 23.040897085405774 31.38237988796214 14.388965222462765 -28.03188217972839 0.0 0.0 0.0 -0.3496867310113414 0.0010021113362379257 1.4430518252120192 -46.17892319834295 16.662495071755284 -27.3231110891779 -61.93882823020485 13.695764908476662 11.97695102221871 0.0 0.0 0.0
-248.1998638122195 262.8552083422645 1419.129246128869 -2.524832022253468 0.5249587837248858 -14.442948638488351 0.7157868184479141 1.342010359225753 -0.0541805909229423 0.9806604397897557 -18.310563962753665 0.24224364317603528 0.0 0.0 0.0 0.9975296224510827 1.0672571980193148 -6.882814003087596 70.82851555975599 20.796984331608243 23.082866728700186 31.33705327868922 14.357846060035136 -28.000412728324402 0.0 0.0 0.0 -0.372501448804332 0.003117151425861683 1.2611162116131986 -46.141581364841045 16.662252925594572 -27.287142796547297 -61.88599090044651 13.78635848366771 12.1008904362514 0.0 0.0 0.0
-248.15138064464202 262.74070863994035 1419.4395349626152 -2.547741046495854 0.4198606696899532 -14.303138762266808 0.6888951091171479 1.3831075751778683 -0.04627161253980417 0.9893510145997204 -18.254340321309236 0.23242061104690545 0.0 0.0 0.0 0.9764804379106035 1.0890288685334502 -7.067892139591158 70.87604608149053 20.79052096806297 23.121886089544915 31.291710530954408 14.326890829811338 -27.96923077349024 0.0 0.0 0.0 -0.39612906853504865 0.005238204943683808 1.0715019277190756 -46.100673697959735 16.660634669454186 -27.25260033759788 -61.840136552176794 13.880981649091543 12.227674464086913 0.0 0.0 0.0
-248.1584227480973 262.60578150558024 1419.774768960945 -2.573460191476111 0.30553401266329544 -14.146026823233328 0.6581804236350013 1.424961130604477 -0.037602628424443785 0.9985169854944321 -18.19249288241493 0.22193815149338536 0.0 0.0 0.0 0.9545865391152895 1.111496496425854 -7.259544672994836 70.93088357343024 20.78784069257681 23.157111438181126 31.246505561884277 14.296197470376011 -27.938428048309664 0.0 0.0 0.0 -0.42071160731206225 0.007364709398990885 0.8737123413398513 -46.05533322561797 16.65746482021599 -27.21926100699879 -61.80197884624303 13.980672462144932 12.358282179134907 0.0 0.0 0.0
-248.23264745036715 262.4472170699478 1420.138814191565 -2.6036008524026895 0.1808220543783835 -13.969852963346767 0.6237050995276118 1.4674450823058818 -0.028198611483999447 1.0078173367749412 -18.124458669115807 0.21104721501673107 0.0 0.0 0.0 0.9318869191357718 1.1345966552888909 -7.457307795613593 70.99415536654482 20.78967492981445 23.187668883573853 31.201639125335937 14.26586352764366 -27.908059022429082 0.0 0.0 0.0 -0.44632050821921526 0.009488761186157846 0.667787711853094 -46.00468296299117 16.65258050210293 -27.18684241613545 -61.77199195286428 14.086473680719932 12.493765948022887 0.0 0.0 0.0
-248.38559203649078 262.2621007874024 1420.5351614477859 -2.6399619517712543 0.04484457326441361 -13.77343550894327 0.5856285683948559 1.5103184568208865 -0.018110509557437208 1.016820667800135 -18.04982747988588 0.20007952677594062 0.0 0.0 0.0 0.9085268841309931 1.15820750949046 -7.660145973203557 71.06689417971704 20.796741933333152 23.212668116440685 31.157360620801235 14.235987302119122 -27.878141939778377 0.0 0.0 0.0 -0.4729480573035833 0.011595892131614946 0.45431944722870243 -45.94786698857049 16.64583620546221 -27.155015491368044 -61.7503901591158 14.199398676821609 12.6352179047565 0.0 0.0 0.0
-248.6284414889139 262.04790378273526 1420.9668453631095 -2.684490105751053 -0.10297870645657532 -13.556185229370136 0.5442103495911397 1.5532388990960642 -0.007414486305429449 1.0250128226138742 -17.968358001383947 0.1894419584928756 0.0 0.0 0.0 0.8847597284570781 1.1821543618674013 -7.866479548504809 71.14999656433739 20.809729686947065 23.231218087743617 31.113967301792112 14.206668755152723 -27.848661415402805 0.0 0.0 0.0 -0.5005024685215885 0.013666380311344295 0.23443461023626455 -45.88408297302002 16.637108242593193 -27.123420047669804 -61.73711716367472 14.320396755328431 12.783733034014265 0.0 0.0 0.0
-248.9717952939737 261.802564988264 1421.436383230468 -2.739230308437411 -0.2629177910534682 -13.31809060165256 0.4998106814770147 1.5957828071665516 0.003789734926076151 1.0318080500157847 -17.879987823968165 0.17960771518498353 0.0 0.0 0.0 0.8609431876880984 1.2062185122964673 -8.074243335182159 71.2441827289762 20.82927838342084 23.2424443304295 31.07180063694195 14.178009949116738 -27.819572294660325 0.0 0.0 0.0 -0.5288072901474212 0.01567700670150931 0.009751249382258888 -45.81261460951304 16.62629875495921 -27.091681964907554 -61.73184574608056 14.45031889384734 12.940370015570435 0.0 0.0 0.0
-249.42543930242115 261.5245628635515 1421.9457344051343 -2.8062685160615692 -0.43493490259816764 -13.059676278481993 0.4528888015903222 1.6374705487761956 0.015381281083751384 1.0365633709820767 -17.784837277221783 0.17110461608986566 0.0 0.0 0.0 0.8375306576643519 1.230148831500476 -8.280973202724242 71.34995942332037 20.855962979906785 23.24550746472662 31.031239685158706 14.150114835504162 -27.79080447424045 0.0 0.0 0.0 -0.5576054988987775 0.017603102780984873 -0.2176928859202374 -45.73286232063323 16.613339147530965 -27.05943086962805 -61.7339878596047 14.589884948406961 13.106111183591205 0.0 0.0 0.0
-249.99812893023613 261.2129749412277 1422.496279747948 -2.8876680277392923 -0.6186984961533668 -12.781939072615808 0.4039986854876121 1.6777948919558767 0.02722115600785098 1.0385957259513254 -17.683207378735506 0.1645008557855412 0.0 0.0 0.0 0.8150575785957096 1.25367520692082 -8.483915375276833 71.46758757737591 20.890276383511445 23.239622283284472 30.99269148838298 14.123088273074508 -27.76226841738351 0.0 0.0 0.0 -0.5865682215661303 0.01942068157061251 -0.44553354741736106 -45.64437065637752 16.598192845195193 -27.02631721434765 -61.74271467017977 14.739653317633294 13.281822991811216 0.0 0.0 0.0
